<svg width="28" height="36" viewBox="0 0 28 36" fill="none" xmlns="http://www.w3.org/2000/svg">
<path d="M14.213 35.7621C8.36145 30.316 3.5341 25.2824 0.957888 18.5815C-1.30023 12.716 0.534927 6.51487 5.40072 2.77813C10.0813 -0.815285 16.6704 -0.934134 21.5466 2.488C26.5173 5.98005 28.5587 12.1776 26.5942 18.1271C24.8709 23.3459 21.3858 27.4147 17.7505 31.3822C16.534 32.7105 15.4749 34.1891 14.213 35.7621ZM13.6572 1.37642C7.09956 1.34496 1.80381 6.54283 1.78284 13.0306C1.76186 19.5253 7.0646 24.877 13.5139 24.8805C19.9352 24.884 25.224 19.6581 25.2729 13.2578C25.3218 6.66518 20.1869 1.41138 13.6572 1.37642Z" fill="#E31616"/>
<path d="M13.6571 1.37661C20.1868 1.41156 25.3218 6.66536 25.2728 13.258C25.2239 19.6583 19.9386 24.8841 13.5138 24.8806C7.06452 24.8771 1.76528 19.522 1.78276 13.0307C1.80373 6.54302 7.09948 1.34515 13.6571 1.37661Z" fill="white"/>
<path d="M11.0545 10.4545C11.2755 10.4545 11.4545 10.2755 11.4545 10.0545V5.4C11.4545 5.17909 11.6336 5 11.8545 5H15.1455C15.3664 5 15.5455 5.17909 15.5455 5.4V10.0545C15.5455 10.2755 15.7245 10.4545 15.9455 10.4545H20.6C20.8209 10.4545 21 10.6336 21 10.8545V14.1455C21 14.3664 20.8209 14.5455 20.6 14.5455H15.9455C15.7245 14.5455 15.5455 14.7245 15.5455 14.9455V19.6C15.5455 19.8209 15.3664 20 15.1455 20H11.8545C11.6336 20 11.4545 19.8209 11.4545 19.6V14.9455C11.4545 14.7245 11.2755 14.5455 11.0545 14.5455H6.4C6.17909 14.5455 6 14.3664 6 14.1455V10.8545C6 10.6336 6.17909 10.4545 6.4 10.4545H11.0545Z" fill="#E31616"/>
</svg>
